<?xml version="1.0" standalone="no"?>
<!DOCTYPE svg PUBLIC "-//W3C//DTD SVG 1.1//EN" "http://www.w3.org/Graphics/SVG/1.1/DTD/svg11.dtd">
<svg xmlns="http://www.w3.org/2000/svg" viewBox="0 0 385.42 71.28" width="385.4200134277344" height="71.27999877929688"><defs><style>.cls-1{fill:none;}.cls-2{fill:#3490bf;}.cls-3{fill:#010101;}.cls-4{fill:#231f20;}.cls-5{fill:#d7c29c;}.cls-6{fill:#e3d5b1;}.cls-7{fill:#130c0e;}.cls-8{fill:#4a4f55;}</style></defs><g id="Layer_2" data-name="Layer 2"><g id="Layer_1-2" data-name="Layer 1"><path class="cls-1" d="M177.24,28.83a10.48,10.48,0,0,0-3.3-2.18,10.29,10.29,0,0,0-4-.81h-2.76v20h2.76a10.15,10.15,0,0,0,4-.81,10.65,10.65,0,0,0,3.3-2.22,10.36,10.36,0,0,0,2.2-3.23,9.49,9.49,0,0,0,.75-3.76,9.86,9.86,0,0,0-2.93-7Z"/><path class="cls-1" d="M142.65,27a9,9,0,0,0-4.92-1.45A8.87,8.87,0,0,0,132.82,27a10.57,10.57,0,0,0-4.91,8.8,10,10,0,0,0,1.34,5,10.64,10.64,0,0,0,3.57,3.84,9.06,9.06,0,0,0,9.8,0,10.81,10.81,0,0,0,3.6-3.84,10.2,10.2,0,0,0,1.32-5,10.1,10.1,0,0,0-1.32-5A10.53,10.53,0,0,0,142.65,27Z"/><path class="cls-2" d="M113.05,44.63a8,8,0,0,1-9.14,0,10.51,10.51,0,0,1-3.35-3.82,10.66,10.66,0,0,1-1.25-5,10.91,10.91,0,0,1,1.22-5A10.49,10.49,0,0,1,103.88,27a8.05,8.05,0,0,1,9.19,0,9.54,9.54,0,0,1,2,1.88l5.6-5.79a17,17,0,0,0-3.67-3,16.33,16.33,0,0,0-17.11,0,17.77,17.77,0,0,0-6.25,6.6,19.25,19.25,0,0,0,0,18.25,17.64,17.64,0,0,0,6.25,6.58,16.33,16.33,0,0,0,17.11,0,17.94,17.94,0,0,0,3.72-3.08l-5.6-5.79A9.72,9.72,0,0,1,113.05,44.63Z"/><path class="cls-2" d="M146.9,20.08a18.56,18.56,0,0,0-18.33,0,18.26,18.26,0,0,0-6.7,6.59,17.82,17.82,0,0,0-2.47,9.15,17.57,17.57,0,0,0,2.47,9.11,18.49,18.49,0,0,0,25,6.6,17.83,17.83,0,0,0,6.67-6.6A17.48,17.48,0,0,0,156,35.82a17.72,17.72,0,0,0-2.47-9.15A18,18,0,0,0,146.9,20.08Zm-.68,20.72a10.81,10.81,0,0,1-3.6,3.84,9.06,9.06,0,0,1-9.8,0,10.64,10.64,0,0,1-3.57-3.84,10,10,0,0,1,0-10A10.2,10.2,0,0,1,132.82,27a8.87,8.87,0,0,1,4.91-1.45A9,9,0,0,1,142.65,27a10.53,10.53,0,0,1,3.57,3.81,10.1,10.1,0,0,1,1.32,5A10.2,10.2,0,0,1,146.22,40.8Z"/><path class="cls-2" d="M183.67,23.42a19,19,0,0,0-13-5H158.3V53.14h12.39a19,19,0,0,0,7.11-1.32,18.43,18.43,0,0,0,5.87-3.66,17,17,0,0,0,3.94-5.55A16.45,16.45,0,0,0,189,35.82,16.83,16.83,0,0,0,187.61,29,17.12,17.12,0,0,0,183.67,23.42Zm-4.25,16.16a10.36,10.36,0,0,1-2.2,3.23,10.65,10.65,0,0,1-3.3,2.22,10.15,10.15,0,0,1-4,.81h-2.76v-20h2.76a10.29,10.29,0,0,1,4,.81,10.48,10.48,0,0,1,3.3,2.18,9.86,9.86,0,0,1,2.93,7A9.49,9.49,0,0,1,179.42,39.58Z"/><polygon class="cls-2" points="191.24 53.18 213.26 53.18 213.26 45.87 199.74 45.87 199.74 39.18 208.59 39.18 206.61 31.87 199.74 31.87 199.74 25.86 213.26 25.86 213.26 18.5 191.24 18.5 191.24 53.18"/><polygon class="cls-3" points="243.87 34.47 221.77 17.97 221.77 53.07 230.33 53.07 230.3 35.45 252.37 53.17 252.37 18.51 243.87 18.46 243.87 34.47"/><polygon class="cls-3" points="256.8 53.14 265.3 53.17 265.3 18.51 256.8 18.51 256.8 53.14"/><polygon class="cls-3" points="300.33 53.16 300.33 18.5 291.82 18.45 291.82 34.46 269.73 17.96 269.73 53.06 278.29 53.06 278.26 35.44 300.33 53.16"/><path class="cls-3" d="M304.83,51.58h0a14.2,14.2,0,0,1-.32,1.66,9,9,0,0,1-2.64,4,10.46,10.46,0,0,1-4.42,2.34l-.08,0h-.1l-.31,0-1.08.17v7.43a21.1,21.1,0,0,0,3.64-.52,18.79,18.79,0,0,0,8.17-4.27,16.21,16.21,0,0,0,4.79-7.31A13.54,13.54,0,0,0,313,52h.05V18.51h-8.24Z"/><path class="cls-3" d="M314.28,53.14h8.78L326.45,47h13.86l3.4,6.16h8.77L333.4,18ZM330,40.58l3.43-6.16,3.39,6.16Z"/><path class="cls-3" d="M372,35.55a11.26,11.26,0,0,0-4.5-3.25c-1.71-.66-3.38-1.33-5-2s-2.4-1.62-2.4-2.79a2.32,2.32,0,0,1,1.1-2,3.74,3.74,0,0,1,2.25-.76,6.13,6.13,0,0,1,2.84.63,12.59,12.59,0,0,1,2.66,2l4.18-6a14.34,14.34,0,0,0-4.62-3,14.06,14.06,0,0,0-5.28-1,12,12,0,0,0-5.45,1.27,10.43,10.43,0,0,0-4.18,3.72A10.17,10.17,0,0,0,352,28.12q0,4.27,1.86,6.42a11.57,11.57,0,0,0,4.47,3.25l1.3.54,1.27.52,2.49,1c1.61.7,2.42,1.64,2.42,2.83a2.52,2.52,0,0,1-1.3,2.3,5.2,5.2,0,0,1-2.76.81A7,7,0,0,1,356,43.05l-4.6,6.55a13.87,13.87,0,0,0,4.94,3.08,16.67,16.67,0,0,0,5.77,1,12.18,12.18,0,0,0,8.48-3q3.34-3,3.35-8.55Q373.9,37.8,372,35.55Z"/><path class="cls-4" d="M385.42,22.28A4.78,4.78,0,0,1,384,25.75a4.85,4.85,0,0,1-6.9,0,4.93,4.93,0,0,1,0-6.94,4.85,4.85,0,0,1,6.9,0A4.75,4.75,0,0,1,385.42,22.28Zm-7.53-2.68a3.68,3.68,0,0,0-1.1,2.68,3.64,3.64,0,0,0,1.1,2.67,3.75,3.75,0,0,0,6.4-2.67,3.75,3.75,0,0,0-6.4-2.68Zm.94,5.22v-5h1.42a3.32,3.32,0,0,1,1.05.15,1.39,1.39,0,0,1,.71.51,1.55,1.55,0,0,1,.25.9,1.52,1.52,0,0,1-.22.77,1.17,1.17,0,0,1-.59.51l1.26,2.2h-1.45l-1.17-2.26h0v2.25Zm1.24-2.55a1.56,1.56,0,0,0,.52-.07.55.55,0,0,0,.32-.24.7.7,0,0,0,.12-.42.56.56,0,0,0-.24-.54,1.5,1.5,0,0,0-.72-.14Z"/><path class="cls-1" d="M48.93,30.33v11h0v-11Z"/><path class="cls-1" d="M78,42.69h0Z"/><path class="cls-5" d="M19.86,28.59a27.74,27.74,0,0,0-.77,7.05h0a39.1,39.1,0,0,0,.78,7,282,282,0,0,1,29.06-1.35v-11A248.12,248.12,0,0,1,19.86,28.59Z"/><path class="cls-6" d="M78.81,35.64h0a39.1,39.1,0,0,0-.78-7A218.34,218.34,0,0,1,49,30.33v11c8.63,0,18.59.35,29,1.4h.09A28.24,28.24,0,0,0,78.81,35.64Z"/><path class="cls-7" d="M48.93,0C32.27,0,18.42,12.61,15.55,29.24c-2.83-2.41-7.71-4.55-14.9-1A1.15,1.15,0,0,0,.25,30c1.49,1.88,5,5.48,10.17,5.55-3.17,1.84-6.57,5.56-5.77,13a1.28,1.28,0,0,0,1.67,1.05c2.53-.81,7.59-3.08,9.07-8.5C17.89,58.19,32,71.28,48.93,71.28c18.73,0,33.92-16,33.92-35.64S67.66,0,48.93,0ZM78,42.69c-10.42-1-20.38-1.4-29-1.4h0a282,282,0,0,0-29.06,1.35,39.1,39.1,0,0,1-.78-7h0a27.74,27.74,0,0,1,.77-7,248.12,248.12,0,0,0,29.07,1.74h0A218.34,218.34,0,0,0,78,28.64a39.1,39.1,0,0,1,.78,7h0a28.24,28.24,0,0,1-.76,7H78Z"/><path class="cls-8" d="M22,49.68s6.8,15.77,23.75,17.64A29.09,29.09,0,0,0,66.9,61.05S39.25,72,22,49.68Z"/><path class="cls-8" d="M75.55,22S68.75,6.27,51.8,4.4a29.09,29.09,0,0,0-21.19,6.27S58.26-.26,75.55,22Z"/><path class="cls-7" d="M39.51,34.88l-10.85-1.3a.61.61,0,0,0-.54,1c4.22,5,9.37,2.73,11.62,1.3a.53.53,0,0,0-.23-1Z"/><path class="cls-7" d="M58.13,35.87c2.26,1.43,7.41,3.75,11.63-1.3a.61.61,0,0,0-.55-1l-10.84,1.3a.54.54,0,0,0-.24,1Z"/></g></g></svg>